<?xml version="1.0"?>
<svg width="48" height="48" xmlns="http://www.w3.org/2000/svg" xmlns:svg="http://www.w3.org/2000/svg" xmlns:xlink="http://www.w3.org/1999/xlink">
 <defs id="defs3">
  <linearGradient id="linearGradient2371">
   <stop id="stop2373" offset="0" stop-color="#000000"/>
   <stop id="stop2375" offset="1" stop-color="#000000" stop-opacity="0.48"/>
  </linearGradient>
  <linearGradient id="linearGradient2355">
   <stop id="stop2357" offset="0" stop-color="#000000"/>
   <stop id="stop2359" offset="1" stop-color="#000000" stop-opacity="0"/>
  </linearGradient>
  <radialGradient cx="15.44" cy="42.09" gradientTransform="matrix(1 0 0 .52514 0 22.022)" gradientUnits="userSpaceOnUse" id="radialGradient2238" r="11.19">
   <stop id="stop2234" offset="0" stop-color="#b0b0b0"/>
   <stop id="stop2236" offset="1" stop-color="#747474"/>
  </radialGradient>
  <radialGradient cx="25.19" cy="41" gradientTransform="matrix(1 0 0 .42586 -1.9407e-16 23.54)" gradientUnits="userSpaceOnUse" id="radialGradient2248" r="16.44">
   <stop id="stop2244" offset="0" stop-color="#000000"/>
   <stop id="stop2246" offset="1" stop-color="#000000" stop-opacity="0"/>
  </radialGradient>
  <linearGradient id="linearGradient2258" x1="0.76" x2="1.02" y1="0.66" y2="0.54">
   <stop id="stop2254" offset="0" stop-color="#c6c6c6"/>
   <stop id="stop2256" offset="1" stop-color="#c6c6c6" stop-opacity="0"/>
  </linearGradient>
  <radialGradient cx="20.27" cy="5.71" gradientTransform="matrix(2.5308 -5.6871e-16 5.1595e-16 2.296 -31.036 -6.6999)" gradientUnits="userSpaceOnUse" id="radialGradient2343" r="12.49">
   <stop id="stop2339" offset="0" stop-color="#ffffff"/>
   <stop id="stop2341" offset="1" stop-color="#ffffff" stop-opacity="0"/>
  </radialGradient>
  <radialGradient cx="19.56" cy="6.64" gradientTransform="matrix(1.4919 -.084451 -.058744 3.9867 -9.6468 -20.276)" gradientUnits="userSpaceOnUse" id="radialGradient2351" r="10.99">
   <stop id="stop2347" offset="0" stop-color="#d5d5d5"/>
   <stop id="stop2349" offset="1" stop-color="#a0a0a0"/>
  </radialGradient>
  <linearGradient id="linearGradient2361" x1="0.34" x2="1.08" xlink:href="#linearGradient2355" y1="0" y2="0.83"/>
  <linearGradient id="linearGradient2377" x1="1.11" x2="0.46" xlink:href="#linearGradient2371" y1="-2.09" y2="-2.57"/>
  <linearGradient id="linearGradient2405" x1="0.5" x2="0.54" y1="0.73" y2="0.25">
   <stop id="stop2401" offset="0" stop-color="#ffffff"/>
   <stop id="stop2403" offset="1" stop-color="#ffffff" stop-opacity="0"/>
  </linearGradient>
  <radialGradient cx="33.5" cy="20.54" gradientTransform="matrix(.43533 1.1408e-15 -1.1408e-15 .43533 18.917 12.493)" gradientUnits="userSpaceOnUse" id="radialGradient2413" r="2.27">
   <stop id="stop2409" offset="0" stop-color="#d5d5d5"/>
   <stop id="stop2411" offset="1" stop-color="#747474"/>
  </radialGradient>
 </defs>
 <g class="layer">
  <title>Layer 1</title>
  <g id="layer1">
   <path d="m41.63,41a16.44,7 0 1 1 -32.88,0a16.44,7 0 1 1 32.88,0z" fill="url(#radialGradient2248)" fill-rule="evenodd" id="path2240" opacity="0.49" transform="matrix(1.1065 0 0 1.0446 -2.6816 -2.5179)"/>
   <path d="m27.63,46.38a11.19,5.88 0 1 1 -22.38,0a11.19,5.88 0 1 1 22.38,0z" fill="url(#radialGradient2238)" fill-rule="evenodd" id="path2222" stroke="#424242" transform="translate(8.75 -7)"/>
   <path d="m35.38,22.13a1.88,1.88 0 1 1 -3.75,0a1.88,1.88 0 1 1 3.75,0z" fill="#424242" fill-rule="evenodd" id="path2260" transform="matrix(2.0667 0 0 1.2667 -43.983 9.475)"/>
   <path d="m20.25,31.38s0.74,3.4 3,3.12c6.13,-0.75 5.47,-0.49 9.88,0.88c4.43,1.37 2.09,3.59 6.62,4s4.13,-3.63 8,-3.88" fill="none" id="path2250" stroke="url(#linearGradient2258)"/>
   <rect fill="url(#radialGradient2351)" fill-rule="evenodd" height="30.69" id="rect1343" rx="6.69" ry="6.69" stroke="#7c7c7c" transform="matrix(.97073 .24016 -.26401 .96452 0 0)" width="22.14" x="16.03" y="-4.01"/>
   <rect fill="none" height="28.52" id="rect2353" opacity="0.31" rx="5.42" ry="5.42" stroke="#ffffff" transform="matrix(.97073 .24016 -.26401 .96452 0 0)" width="19.86" x="17.21" y="-3.01"/>
   <path d="m20.09,1.97c-2.22,0.35 -4.15,2.04 -4.78,4.34l-4.84,17.85c2.86,1.4 6.64,0.47 10.22,0.47c0.49,0 0.99,-0.01 1.47,-0.04c-0.94,-0.22 -2.32,-0.56 -2.32,-0.56c-0.22,-0.06 -0.42,-0.13 -0.56,-0.25c0,0 -0.02,-0.03 -0.03,-0.03c-0.01,-0.01 -0.05,-0.05 -0.06,-0.06l-0.03,-0.03l-0.03,-0.07c-0.01,-0.02 -0.03,-0.07 -0.04,-0.09l0,-0.03c0,-0.01 -0.02,-0.05 -0.03,-0.06c0,-0.01 0,-0.03 0,-0.03c0,-0.02 0,-0.06 0,-0.07l0,-0.03c0,0 0,-0.03 0,-0.03c0.01,-0.04 0.03,-0.09 0.03,-0.12c0.01,-0.01 0.03,-0.06 0.04,-0.07l0,-0.03c0,-0.02 0.02,-0.07 0.03,-0.09c0,-0.02 0.02,-0.05 0.03,-0.06c0.02,-0.05 0.06,-0.12 0.09,-0.16l0.03,-0.03c0.01,-0.01 0.06,-0.03 0.07,-0.03c0.02,-0.02 0.08,-0.05 0.12,-0.07c0.01,0 0.05,0 0.06,0l0,-0.03l0.03,0c0.18,-0.03 0.4,0 0.63,0.03l5.94,1.38c1.19,-0.29 2.32,-0.69 3.4,-1.16c-0.15,-0.08 -0.31,-0.14 -0.47,-0.18c-0.03,-0.02 -0.08,-0.03 -0.12,-0.04l-8.22,-2c-0.22,-0.06 -0.44,-0.13 -0.59,-0.25c-0.01,0 -0.03,-0.02 -0.03,-0.03c-0.01,0 -0.03,-0.02 -0.04,-0.03c0,0 -0.02,-0.02 -0.03,-0.03c0,-0.01 -0.02,-0.05 -0.03,-0.06c0,-0.01 -0.02,-0.03 -0.03,-0.03l0,-0.03c-0.01,-0.02 -0.03,-0.06 -0.03,-0.07l0,-0.03l0,-0.06c0,-0.02 0,-0.07 0,-0.09l0,-0.04c0,-0.01 0,-0.05 0,-0.06l0,-0.03c0,-0.01 0.03,-0.05 0.03,-0.06c0.01,-0.03 0.02,-0.07 0.03,-0.1c0.01,-0.01 0.03,-0.05 0.03,-0.06c0.02,-0.03 0.05,-0.09 0.07,-0.12c0.01,-0.02 0.04,-0.07 0.06,-0.1l0.03,-0.03l0.03,-0.03c0.01,-0.01 0.05,-0.03 0.06,-0.03c0.02,-0.01 0.05,-0.03 0.06,-0.03c0.01,-0.01 0.05,-0.03 0.07,-0.03l0.03,0c0,-0.01 0.02,-0.03 0.03,-0.03l0.03,0c0.01,-0.01 0.03,-0.03 0.03,-0.04l0.03,0l0.03,0c0.15,0 0.33,0.04 0.5,0.07l8.32,1.93c0.62,0.18 1.18,0.61 1.62,1.04c0.52,-0.28 0.99,-0.6 1.47,-0.91c-0.14,-0.2 -1.33,-1.7 -2.41,-2.03c-0.03,-0.01 -0.08,-0.03 -0.12,-0.03l-8.22,-2c-0.22,-0.06 -0.44,-0.14 -0.59,-0.25c-0.01,-0.01 -0.03,-0.03 -0.03,-0.03l-0.04,-0.04c0,0 -0.02,-0.02 -0.03,-0.03c0,-0.01 -0.02,-0.05 -0.03,-0.06c0,-0.01 -0.02,-0.03 -0.03,-0.03c0,0 0,-0.03 0,-0.03c0,-0.01 -0.02,-0.05 -0.03,-0.06l0,-0.04l0,-0.06c0,-0.02 0,-0.07 0,-0.09l0,-0.03c0,-0.02 0,-0.05 0,-0.07l0,-0.03c0.01,-0.01 0.03,-0.05 0.03,-0.06c0.01,-0.03 0.02,-0.07 0.03,-0.09c0.01,-0.01 0.03,-0.06 0.03,-0.07c0.02,-0.03 0.05,-0.09 0.07,-0.12c0.01,-0.02 0.04,-0.07 0.06,-0.09c0,-0.01 0.02,-0.03 0.03,-0.04c0.01,0 0.03,-0.02 0.03,-0.03c0.01,0 0.05,-0.02 0.06,-0.03l0.07,-0.03c0,-0.01 0.02,-0.03 0.03,-0.03c0.01,0 0.05,0 0.06,0l0.03,-0.03c0,0 0.03,0 0.03,0l0.03,-0.03l0.03,0l0.04,0c0.14,-0.01 0.32,0.03 0.5,0.06l8.31,1.94c1.34,0.37 2.47,2 2.47,2l-0.41,1.56c0.18,-0.12 0.38,-0.22 0.56,-0.34l2.6,-9.54c0.84,-3.07 -0.96,-6.14 -4.03,-6.9l-9.29,-2.31c-0.6,-0.15 -1.19,-0.2 -1.78,-0.16c0,0 -0.02,0 -0.03,0c-0.01,0 -0.05,0 -0.06,0c-0.01,0 -0.03,0 -0.03,0c0,0 -0.03,0 -0.03,0c-0.03,0 -0.1,0 -0.13,0c-0.01,0 -0.04,0 -0.06,0c0,0 -0.03,0 -0.03,0c-0.01,0 -0.05,0 -0.06,0c-0.01,0 -0.06,0 -0.07,0zm-4.5,5.22l4.91,0.97c0.19,0.05 0.39,0.14 0.53,0.28c0.01,0 0.03,0.02 0.03,0.03c0.01,0 0.03,0.02 0.03,0.03c0.01,0.01 0.03,0.05 0.03,0.06c0.01,0.01 0.03,0.03 0.04,0.03c0.01,0.03 0.02,0.08 0.03,0.1c0.01,0.03 0.02,0.09 0.03,0.12l0,0.03c0,0.02 0,0.05 0,0.07c0,0.02 0,0.09 0,0.12l0,0.03c-0.01,0.01 -0.03,0.05 -0.03,0.07c-0.01,0.02 -0.03,0.06 -0.03,0.09c0,0 0,0.03 0,0.03c-0.01,0.01 -0.03,0.05 -0.04,0.06c0,0.02 -0.02,0.05 -0.03,0.07c0,0 -0.02,0.02 -0.03,0.03c0,0.01 -0.02,0.05 -0.03,0.06c0,0 -0.03,0.02 -0.03,0.03c0,0.01 -0.03,0.03 -0.03,0.03c-0.01,0.01 -0.03,0.03 -0.03,0.03c-0.01,0.01 -0.05,0.03 -0.06,0.03c-0.01,0.01 -0.03,0.03 -0.04,0.04c-0.02,0 -0.07,0.02 -0.09,0.03c-0.02,0 -0.07,0.02 -0.09,0.03c-0.17,0.03 -0.36,0.02 -0.53,-0.03l-4.94,-1.07l0.4,-1.4zm7.82,1.59c0,0 0.03,0 0.03,0c0,0 0.03,0 0.03,0c0.14,0 0.32,0.03 0.5,0.06l8.31,1.94c1.35,0.38 2.22,1.75 2.22,1.75l-0.34,1.53c-0.15,-0.19 -1.15,-1.42 -2.22,-1.75c-0.04,-0.01 -0.09,-0.02 -0.13,-0.03l-8.22,-2c-0.22,-0.06 -0.44,-0.13 -0.59,-0.25c-0.01,0 -0.03,-0.03 -0.03,-0.03c-0.01,0 -0.03,-0.03 -0.03,-0.03c-0.01,-0.01 -0.03,-0.03 -0.03,-0.03c-0.01,-0.01 -0.03,-0.05 -0.03,-0.06c-0.01,-0.01 -0.03,-0.03 -0.04,-0.04l0,-0.03c0,-0.01 -0.02,-0.05 -0.03,-0.06c0,0 0,-0.03 0,-0.03l0,-0.06c0,-0.03 0,-0.07 0,-0.1c0,0 0,-0.02 0,-0.03l0,-0.06c0,0 0,-0.03 0,-0.03c0.01,-0.01 0.03,-0.05 0.03,-0.06c0.01,-0.03 0.03,-0.07 0.04,-0.1c0,-0.01 0.02,-0.05 0.03,-0.06c0.01,-0.04 0.04,-0.09 0.06,-0.13c0.01,-0.02 0.04,-0.07 0.06,-0.09c0.01,0 0.03,-0.03 0.03,-0.03c0.01,-0.01 0.03,-0.03 0.03,-0.03c0.01,-0.01 0.06,-0.03 0.07,-0.03c0.01,-0.01 0.05,-0.03 0.06,-0.03c0,-0.01 0.02,-0.03 0.03,-0.04c0.01,0 0.05,0 0.06,0c0.01,0 0.03,-0.02 0.03,-0.03c0.01,0 0.03,0 0.03,0c0.01,0 0.03,-0.03 0.04,-0.03zm-8.72,1.78l4.9,0.97c0.19,0.06 0.39,0.15 0.54,0.28c0,0.01 0.02,0.03 0.03,0.03c0,0.01 0.02,0.03 0.03,0.04c0,0.01 0.02,0.05 0.03,0.06l0.03,0.03l0,0.03c0.01,0.01 0.03,0.05 0.03,0.06c0.01,0.03 0.03,0.07 0.03,0.1c0,0 0,0.02 0,0.03l0,0.06c0,0.02 0,0.07 0,0.09c0,0.05 -0.02,0.11 -0.03,0.16l0,0.03c-0.01,0.03 -0.05,0.1 -0.06,0.13c-0.01,0.01 -0.03,0.05 -0.03,0.06c-0.01,0.01 -0.03,0.05 -0.03,0.06c-0.01,0.01 -0.03,0.03 -0.04,0.03c-0.03,0.05 -0.08,0.1 -0.12,0.13c-0.01,0 -0.03,0.02 -0.03,0.03c-0.02,0.01 -0.05,0.02 -0.06,0.03c-0.01,0 -0.05,0.02 -0.07,0.03l-0.03,0c-0.01,0.01 -0.05,0.03 -0.06,0.03c-0.17,0.04 -0.35,0.02 -0.53,-0.03l-4.94,-1.06l0.41,-1.41zm7.81,1.66l0.03,0l0.03,0c0.15,-0.01 0.33,0.03 0.5,0.06l8.32,1.94c1.34,0.37 2.09,1.66 2.09,1.66l-0.31,1.43c-0.15,-0.19 -1.05,-1.23 -2.13,-1.56c-0.04,-0.01 -0.09,-0.02 -0.12,-0.03l-8.22,-2c-0.22,-0.06 -0.45,-0.14 -0.6,-0.25c0,0 -0.02,-0.03 -0.03,-0.03c0,-0.01 -0.02,-0.03 -0.03,-0.03c0,-0.01 -0.03,-0.03 -0.03,-0.03c0,-0.02 -0.03,-0.06 -0.03,-0.07c-0.01,0 -0.03,-0.02 -0.03,-0.03c0,0 0,-0.03 0,-0.03c-0.01,-0.01 -0.03,-0.05 -0.03,-0.06l0,-0.03l0,-0.07c0,-0.02 0,-0.07 0,-0.09l0,-0.03c0,-0.01 0,-0.05 0,-0.06l0,-0.04c0,-0.01 0.02,-0.05 0.03,-0.06c0.01,-0.03 0.02,-0.07 0.03,-0.09c0,-0.01 0.02,-0.05 0.03,-0.06c0.02,-0.04 0.04,-0.1 0.06,-0.13c0.02,-0.02 0.05,-0.07 0.07,-0.09c0,-0.01 0.02,-0.03 0.03,-0.03c0,-0.01 0.02,-0.03 0.03,-0.04c0.01,0 0.05,-0.02 0.06,-0.03c0.02,-0.01 0.05,-0.02 0.06,-0.03c0.01,0 0.05,-0.02 0.07,-0.03l0.03,0c0,0 0.02,-0.02 0.03,-0.03l0.03,0c0.01,-0.01 0.03,-0.03 0.03,-0.03zm-8.75,1.72l4.91,1c0.14,0.04 0.28,0.11 0.4,0.18c0.01,0.01 0.05,0.03 0.07,0.04c0,0 0.02,0.02 0.03,0.03c0,0 0.02,0.02 0.03,0.03l0.06,0.06l0.03,0.03l0,0.03c0.01,0.01 0.03,0.06 0.03,0.07l0.03,0.03c0.01,0.03 0.03,0.09 0.03,0.12l0,0.07c0.01,0.02 0.01,0.06 0,0.09l0,0.03c0,0.04 -0.02,0.1 -0.03,0.13l0,0.03c-0.01,0.03 -0.05,0.09 -0.06,0.12c-0.01,0.02 -0.03,0.05 -0.03,0.06l-0.03,0.07c-0.01,0.01 -0.03,0.05 -0.03,0.06c-0.03,0.03 -0.07,0.07 -0.1,0.09l-0.03,0.03l-0.03,0.03c-0.01,0.01 -0.05,0.03 -0.06,0.04c-0.01,0 -0.05,0.02 -0.06,0.03c-0.01,0 -0.03,0 -0.03,0c-0.18,0.05 -0.4,0.05 -0.6,0l-4.94,-1.13l0.41,-1.37zm-0.87,3.34l4.9,1.06c0.22,0.07 0.46,0.2 0.6,0.38c0,0 0.02,0.02 0.03,0.03c0,0.02 0.02,0.05 0.03,0.06c0.01,0.03 0.02,0.07 0.03,0.1c0.01,0.01 0.02,0.05 0.03,0.06l0,0.06l0,0.03l0,0.06l0,0.04l0,0.03c0,0.01 -0.03,0.05 -0.03,0.06c0,0 0,0.03 0,0.03l0,0.03c-0.01,0.03 -0.02,0.09 -0.03,0.13c-0.03,0.08 -0.08,0.16 -0.13,0.22c0,0 -0.02,0.02 -0.03,0.03l-0.03,0.03c0,0 -0.03,0.03 -0.03,0.03l-0.03,0.03c-0.01,0.01 -0.05,0.03 -0.06,0.03c-0.01,0.01 -0.03,0.03 -0.04,0.03c-0.02,0.01 -0.07,0.03 -0.09,0.03l-0.06,0c-0.17,0.04 -0.36,0.02 -0.53,-0.03l-4.94,-1.15l0.41,-1.41zm-0.97,3.38l4.9,1.06c0.19,0.06 0.39,0.14 0.53,0.28c0.01,0 0.03,0.03 0.04,0.03s0.02,0.03 0.03,0.03c0,0.01 0.02,0.05 0.03,0.06c0,0.01 0.02,0.03 0.03,0.04c0.01,0.02 0.02,0.07 0.03,0.09c0.01,0.03 0.02,0.09 0.03,0.12c0,0.01 0,0.03 0,0.04l0,0.06c0,0.03 0,0.09 0,0.12c0,0.01 0,0.03 0,0.03c0,0.02 -0.03,0.06 -0.03,0.07c-0.01,0.02 -0.02,0.07 -0.03,0.09c-0.01,0.02 -0.02,0.07 -0.03,0.09c-0.01,0.02 -0.03,0.05 -0.03,0.07l-0.03,0.03c-0.01,0.01 -0.03,0.05 -0.04,0.06c0,0.01 -0.02,0.03 -0.03,0.03c0,0.01 -0.02,0.03 -0.03,0.03c0,0.01 -0.02,0.03 -0.03,0.03c-0.01,0.01 -0.05,0.03 -0.06,0.04l-0.03,0.03c-0.02,0.01 -0.08,0.02 -0.1,0.03c-0.02,0.01 -0.07,0.02 -0.09,0.03c-0.17,0.03 -0.35,0.02 -0.53,-0.03l-4.94,-1.16l0.41,-1.4z" fill="url(#radialGradient2343)" fill-rule="evenodd" id="rect2302" opacity="0.44"/>
   <path d="m22.28,15.84l8.31,1.94c1.35,0.38 2.47,2 2.47,2l-0.4,1.6s-1.35,-1.85 -2.53,-2.1l-8.22,-2c-0.49,-0.13 -0.94,-0.32 -0.75,-0.9c0.18,-0.6 0.56,-0.63 1.12,-0.54z" fill="url(#linearGradient2361)" fill-rule="evenodd" id="path2284"/>
   <path d="m31.5,19l-0.12,15.38l0,0.03l0,0.03c0.08,1.4 -1.1,2.63 -2.25,2.4l-10.47,-2.15c-0.47,-0.13 -1.72,-0.63 -1.32,-2.07l-1.93,-0.5c-0.68,2.44 1.25,4.16 2.68,4.47l10.66,2.19c2.57,0.52 4.75,-1.83 4.63,-4.41c-0.01,-0.02 0,-0.04 0,-0.06l0.12,-15.31l-2,0z" fill="#747474" fill-rule="evenodd" id="path1345" stroke="#424242"/>
   <path d="m21.25,19.28l8.31,1.94c1.35,0.37 2.47,2 2.47,2l-0.4,1.59s-1.35,-1.84 -2.54,-2.09l-8.21,-2c-0.49,-0.13 -0.94,-0.32 -0.75,-0.91c0.18,-0.59 0.56,-0.62 1.12,-0.53z" fill="url(#linearGradient2361)" fill-rule="evenodd" id="path2286"/>
   <path d="m24.09,8.97l8.32,1.94c1.34,0.37 2.06,1.5 2.06,1.5l-0.41,1.59s-0.93,-1.34 -2.12,-1.59l-8.22,-2c-0.49,-0.13 -0.94,-0.32 -0.75,-0.91c0.19,-0.59 0.56,-0.62 1.12,-0.53z" fill="url(#linearGradient2361)" fill-rule="evenodd" id="path2280"/>
   <path d="m23.19,12.41l8.31,1.93c1.34,0.38 2.06,1.57 2.06,1.57l-0.43,1.5s-0.91,-1.32 -2.1,-1.57l-8.22,-2c-0.48,-0.13 -0.93,-0.32 -0.75,-0.9c0.19,-0.6 0.56,-0.63 1.13,-0.53z" fill="url(#linearGradient2361)" fill-rule="evenodd" id="path2282"/>
   <path d="m35.38,22.13a1.88,1.88 0 1 1 -3.75,0a1.88,1.88 0 1 1 3.75,0z" fill="url(#radialGradient2413)" fill-rule="evenodd" id="path2220" stroke="#424242" stroke-width="0.79" transform="matrix(1.2667 0 0 1.2667 -10.308 -8.15)"/>
   <path d="m20.34,22.72l8.32,1.94c1.34,0.37 2.47,2 2.47,2l-0.41,1.59s-1.34,-1.84 -2.53,-2.09l-8.22,-2c-0.49,-0.13 -0.87,-0.32 -0.75,-0.91c0.12,-0.59 0.56,-0.62 1.12,-0.53z" fill="url(#linearGradient2361)" fill-rule="evenodd" id="path2288"/>
   <path d="m16.56,23.34l-4.93,-1.15l0.4,-1.41l4.91,1.06c0.4,0.13 0.84,0.38 0.69,0.97c-0.16,0.59 -0.63,0.66 -1.07,0.53z" fill="url(#linearGradient2377)" fill-rule="evenodd" id="path2292"/>
   <path d="m17.53,19.98l-4.94,-1.16l0.41,-1.41l4.91,1.07c0.4,0.12 0.84,0.37 0.68,0.97c-0.15,0.58 -0.62,0.65 -1.06,0.53z" fill="url(#linearGradient2377)" fill-rule="evenodd" id="path2294"/>
   <path d="m18.41,16.55l-4.94,-1.1l0.4,-1.4l4.91,1c0.41,0.12 0.85,0.37 0.69,0.97c-0.16,0.58 -0.63,0.65 -1.06,0.53z" fill="url(#linearGradient2377)" fill-rule="evenodd" id="path2296"/>
   <path d="m19.34,13.15l-4.93,-1.06l0.4,-1.41l4.91,0.97c0.41,0.12 0.84,0.37 0.69,0.97c-0.16,0.58 -0.63,0.65 -1.07,0.53z" fill="url(#linearGradient2377)" fill-rule="evenodd" id="path2298"/>
   <path d="m20.25,9.78l-4.94,-1.06l0.41,-1.41l4.91,0.97c0.4,0.13 0.84,0.38 0.68,0.97c-0.15,0.59 -0.62,0.66 -1.06,0.53z" fill="url(#linearGradient2377)" fill-rule="evenodd" id="path2300"/>
   <path d="m27.63,46.38a11.19,5.88 0 1 1 -22.38,0a11.19,5.88 0 1 1 22.38,0z" fill="none" id="path2389" opacity="0.3" stroke="url(#linearGradient2405)" stroke-width="1.16" transform="matrix(.91630 0 0 .80773 10.126 1.9167)"/>
  </g>
 </g>
</svg>
